<mxfile host="app.diagrams.net" modified="2023-07-13T02:53:30.021Z" agent="Mozilla/5.0 (Windows NT 10.0; Win64; x64) AppleWebKit/537.36 (KHTML, like Gecko) Chrome/114.0.0.0 Safari/537.36" etag="PC_y4o7g0xqscxpdUlcW" version="21.6.2" type="github">
  <diagram name="第 1 页" id="Hf1FFASpsajpuEWMgHlz">
    <mxGraphModel dx="1050" dy="549" grid="1" gridSize="10" guides="1" tooltips="1" connect="1" arrows="1" fold="1" page="1" pageScale="1" pageWidth="827" pageHeight="1169" math="0" shadow="0">
      <root>
        <mxCell id="0" />
        <mxCell id="1" parent="0" />
        <mxCell id="EInefzTThO9CFCGSPX6l-32" value="" style="rounded=1;whiteSpace=wrap;html=1;fillColor=#d5e8d4;strokeColor=#82b366;movable=1;resizable=1;rotatable=1;deletable=1;editable=1;locked=0;connectable=1;dashed=1;" vertex="1" parent="1">
          <mxGeometry x="426" y="251" width="194" height="165" as="geometry" />
        </mxCell>
        <mxCell id="EInefzTThO9CFCGSPX6l-8" value="最优扩展区域" style="rounded=0;whiteSpace=wrap;html=1;rotation=-49;dashed=1;fillColor=#dae8fc;strokeColor=#6c8ebf;" vertex="1" parent="1">
          <mxGeometry x="160" y="282.26" width="220" height="60" as="geometry" />
        </mxCell>
        <mxCell id="EInefzTThO9CFCGSPX6l-1" value="" style="edgeStyle=segmentEdgeStyle;endArrow=classic;html=1;curved=0;rounded=0;endSize=8;startSize=8;endFill=1;startArrow=classic;startFill=1;strokeColor=#e5bdbd;strokeWidth=2;" edge="1" parent="1">
          <mxGeometry width="50" height="50" relative="1" as="geometry">
            <mxPoint x="630" y="420" as="sourcePoint" />
            <mxPoint x="190" y="60" as="targetPoint" />
            <Array as="points">
              <mxPoint x="630" y="420" />
              <mxPoint x="190" y="420" />
            </Array>
          </mxGeometry>
        </mxCell>
        <mxCell id="EInefzTThO9CFCGSPX6l-2" value="性能" style="edgeLabel;html=1;align=center;verticalAlign=middle;resizable=0;points=[];" vertex="1" connectable="0" parent="EInefzTThO9CFCGSPX6l-1">
          <mxGeometry x="0.9606" y="2" relative="1" as="geometry">
            <mxPoint x="-18" y="6" as="offset" />
          </mxGeometry>
        </mxCell>
        <mxCell id="EInefzTThO9CFCGSPX6l-3" value="CPU个数" style="edgeLabel;html=1;align=center;verticalAlign=middle;resizable=0;points=[];" vertex="1" connectable="0" parent="EInefzTThO9CFCGSPX6l-1">
          <mxGeometry x="-0.8276" y="4" relative="1" as="geometry">
            <mxPoint x="6" y="6" as="offset" />
          </mxGeometry>
        </mxCell>
        <mxCell id="EInefzTThO9CFCGSPX6l-4" value="&lt;b&gt;&lt;font style=&quot;font-size: 16px;&quot;&gt;SMP架构CPU利用率最好的情况是2-4个CPU&lt;/font&gt;&lt;/b&gt;" style="text;html=1;strokeColor=none;fillColor=none;align=center;verticalAlign=middle;whiteSpace=wrap;rounded=0;" vertex="1" parent="1">
          <mxGeometry x="230" y="50" width="331" height="30" as="geometry" />
        </mxCell>
        <mxCell id="EInefzTThO9CFCGSPX6l-6" value="" style="curved=1;endArrow=none;html=1;rounded=0;endFill=0;" edge="1" parent="1">
          <mxGeometry width="50" height="50" relative="1" as="geometry">
            <mxPoint x="190" y="420" as="sourcePoint" />
            <mxPoint x="610" y="190" as="targetPoint" />
            <Array as="points">
              <mxPoint x="230" y="340" />
              <mxPoint x="270" y="280" />
              <mxPoint x="340" y="230" />
              <mxPoint x="420" y="210" />
              <mxPoint x="470" y="200" />
              <mxPoint x="550" y="190" />
            </Array>
          </mxGeometry>
        </mxCell>
        <mxCell id="EInefzTThO9CFCGSPX6l-7" value="扩展限制" style="rounded=0;whiteSpace=wrap;html=1;fillColor=#ffe6cc;strokeColor=#d79b00;" vertex="1" parent="1">
          <mxGeometry x="429" y="100" width="181" height="30" as="geometry" />
        </mxCell>
        <mxCell id="EInefzTThO9CFCGSPX6l-10" value="FSB速度&lt;br&gt;内存带宽&lt;br&gt;内存延迟&lt;br&gt;CPU时钟速度" style="text;html=1;strokeColor=none;fillColor=none;align=center;verticalAlign=middle;whiteSpace=wrap;rounded=0;" vertex="1" parent="1">
          <mxGeometry x="340" y="150" width="139" height="30" as="geometry" />
        </mxCell>
        <mxCell id="EInefzTThO9CFCGSPX6l-13" value="" style="endArrow=none;html=1;rounded=0;entryX=0.138;entryY=0.967;entryDx=0;entryDy=0;entryPerimeter=0;endFill=0;startArrow=classic;startFill=1;" edge="1" parent="1">
          <mxGeometry width="50" height="50" relative="1" as="geometry">
            <mxPoint x="454" y="202" as="sourcePoint" />
            <mxPoint x="453.97800000000007" y="131.01" as="targetPoint" />
          </mxGeometry>
        </mxCell>
        <mxCell id="EInefzTThO9CFCGSPX6l-14" value="" style="endArrow=classic;html=1;rounded=0;strokeWidth=1;" edge="1" parent="1">
          <mxGeometry width="50" height="50" relative="1" as="geometry">
            <mxPoint x="520" y="131" as="sourcePoint" />
            <mxPoint x="520" y="190" as="targetPoint" />
          </mxGeometry>
        </mxCell>
        <mxCell id="EInefzTThO9CFCGSPX6l-15" value="封装限制&lt;br&gt;散热限制" style="text;html=1;strokeColor=none;fillColor=none;align=center;verticalAlign=middle;whiteSpace=wrap;rounded=0;" vertex="1" parent="1">
          <mxGeometry x="460" y="150" width="60" height="20" as="geometry" />
        </mxCell>
        <mxCell id="EInefzTThO9CFCGSPX6l-17" value="" style="endArrow=classic;html=1;rounded=0;exitX=0.854;exitY=0.993;exitDx=0;exitDy=0;exitPerimeter=0;" edge="1" parent="1" source="EInefzTThO9CFCGSPX6l-7">
          <mxGeometry width="50" height="50" relative="1" as="geometry">
            <mxPoint x="390" y="310" as="sourcePoint" />
            <mxPoint x="584" y="190" as="targetPoint" />
          </mxGeometry>
        </mxCell>
        <mxCell id="EInefzTThO9CFCGSPX6l-18" value="可用性&lt;br&gt;可靠性" style="text;html=1;strokeColor=none;fillColor=none;align=center;verticalAlign=middle;whiteSpace=wrap;rounded=0;" vertex="1" parent="1">
          <mxGeometry x="530" y="150" width="60" height="20" as="geometry" />
        </mxCell>
        <mxCell id="EInefzTThO9CFCGSPX6l-21" value="" style="verticalLabelPosition=bottom;verticalAlign=top;html=1;shape=mxgraph.basic.frame;dx=10;whiteSpace=wrap;" vertex="1" parent="1">
          <mxGeometry x="477" y="350" width="100" height="60" as="geometry" />
        </mxCell>
        <mxCell id="EInefzTThO9CFCGSPX6l-22" value="" style="verticalLabelPosition=bottom;verticalAlign=top;html=1;shape=mxgraph.basic.patternFillRect;fillStyle=diag;step=5;fillStrokeWidth=0.2;fillStrokeColor=#dddddd;" vertex="1" parent="1">
          <mxGeometry x="434" y="270" width="80" height="30" as="geometry" />
        </mxCell>
        <mxCell id="EInefzTThO9CFCGSPX6l-28" style="edgeStyle=orthogonalEdgeStyle;rounded=0;orthogonalLoop=1;jettySize=auto;html=1;exitX=0.5;exitY=1;exitDx=0;exitDy=0;exitPerimeter=0;entryX=0.5;entryY=0;entryDx=0;entryDy=0;entryPerimeter=0;endArrow=none;endFill=0;" edge="1" parent="1" source="EInefzTThO9CFCGSPX6l-23" target="EInefzTThO9CFCGSPX6l-21">
          <mxGeometry relative="1" as="geometry">
            <Array as="points">
              <mxPoint x="577" y="300" />
              <mxPoint x="577" y="325" />
              <mxPoint x="527" y="325" />
            </Array>
          </mxGeometry>
        </mxCell>
        <mxCell id="EInefzTThO9CFCGSPX6l-23" value="" style="verticalLabelPosition=bottom;verticalAlign=top;html=1;shape=mxgraph.basic.patternFillRect;fillStyle=diag;step=5;fillStrokeWidth=0.2;fillStrokeColor=#dddddd;" vertex="1" parent="1">
          <mxGeometry x="534" y="270" width="80" height="30" as="geometry" />
        </mxCell>
        <mxCell id="EInefzTThO9CFCGSPX6l-26" value="" style="endArrow=none;html=1;rounded=0;edgeStyle=orthogonalEdgeStyle;" edge="1" parent="1">
          <mxGeometry width="50" height="50" relative="1" as="geometry">
            <mxPoint x="527" y="325" as="sourcePoint" />
            <mxPoint x="474" y="300" as="targetPoint" />
            <Array as="points">
              <mxPoint x="474" y="325" />
            </Array>
          </mxGeometry>
        </mxCell>
        <mxCell id="EInefzTThO9CFCGSPX6l-29" value="CPU" style="text;html=1;strokeColor=none;fillColor=none;align=center;verticalAlign=middle;whiteSpace=wrap;rounded=0;" vertex="1" parent="1">
          <mxGeometry x="436" y="270" width="60" height="30" as="geometry" />
        </mxCell>
        <mxCell id="EInefzTThO9CFCGSPX6l-30" value="CPU" style="text;html=1;strokeColor=none;fillColor=none;align=center;verticalAlign=middle;whiteSpace=wrap;rounded=0;" vertex="1" parent="1">
          <mxGeometry x="547" y="270" width="60" height="30" as="geometry" />
        </mxCell>
        <mxCell id="EInefzTThO9CFCGSPX6l-31" value="内存" style="text;html=1;align=center;verticalAlign=middle;resizable=0;points=[];autosize=1;strokeColor=none;fillColor=none;" vertex="1" parent="1">
          <mxGeometry x="502" y="365" width="50" height="30" as="geometry" />
        </mxCell>
        <mxCell id="EInefzTThO9CFCGSPX6l-33" value="总线" style="text;html=1;strokeColor=none;fillColor=none;align=center;verticalAlign=middle;whiteSpace=wrap;rounded=0;" vertex="1" parent="1">
          <mxGeometry x="534" y="318.5" width="60" height="30" as="geometry" />
        </mxCell>
      </root>
    </mxGraphModel>
  </diagram>
</mxfile>
